<svg xmlns="http://www.w3.org/2000/svg" viewBox="0 0 120 120" width="120" height="120" shape-rendering="crispEdges">
  <g id="root">
    <!-- Body -->
    <rect x="28" y="44" width="64" height="28" fill="#CC7850"/>
    <!-- Left arm bump -->
    <rect x="20" y="52" width="8" height="14" fill="#CC7850"/>
    <!-- Right arm bump -->
    <rect x="92" y="52" width="8" height="14" fill="#CC7850"/>
    <!-- Left eye -->
    <rect x="38" y="52" width="12" height="12" fill="#1A0A00"/>
    <!-- Right eye -->
    <rect x="70" y="52" width="12" height="12" fill="#1A0A00"/>
    <!-- Legs -->
    <rect x="36" y="72" width="10" height="12" fill="#CC7850"/>
    <rect x="50" y="72" width="10" height="12" fill="#CC7850"/>
    <rect x="60" y="72" width="10" height="12" fill="#CC7850"/>
    <rect x="74" y="72" width="10" height="12" fill="#CC7850"/>
    <!-- Cap brim -->
    <rect x="38" y="32" width="44" height="8" fill="#3355AA"/>
    <!-- Cap crown -->
    <rect x="46" y="24" width="28" height="12" fill="#3355AA"/>
    <!-- Box (beside right arm) -->
    <rect x="92" y="52" width="20" height="20" fill="#A0784A"/>
    <!-- Box panel lines (darker inset) -->
    <rect x="94" y="54" width="16" height="7" fill="#8A6438"/>
    <rect x="94" y="63" width="16" height="7" fill="#8A6438"/>
    <rect x="101" y="54" width="2" height="16" fill="#8A6438"/>
  </g>
</svg>
