<svg width="360" height="240" viewBox="0 0 360 240"
  xmlns="http://www.w3.org/2000/svg" aria-label="Collapsing">
  <defs>
    <filter id="fC" x="-15%" y="-15%" width="130%" height="130%">
      <feGaussianBlur stdDeviation="3"/>
    </filter>
    <filter id="fG" x="-60%" y="-60%" width="220%" height="220%">
      <feGaussianBlur stdDeviation="5"/>
    </filter>
    <filter id="fB" x="-100%" y="-100%" width="300%" height="300%">
      <feGaussianBlur stdDeviation="7"/>
    </filter>
    <filter id="fF" x="-20%" y="-20%" width="140%" height="140%">
      <feGaussianBlur stdDeviation="0.3"/>
    </filter>
    <filter id="fH" x="-30%" y="-30%" width="160%" height="160%">
      <feGaussianBlur stdDeviation="1.5"/>
    </filter>
  </defs>
  <style>
  .z1{animation:zf 2s ease-in-out infinite}
  .z2{animation:zf 2s ease-in-out infinite .66s}
  .z3{animation:zf 2s ease-in-out infinite 1.33s}
  @keyframes zf{0%{transform:translate(0,0);opacity:0}20%{opacity:1}100%{transform:translate(18px,-40px);opacity:0}}</style>
  <g class="cloud" transform="rotate(20 180 155)">
  <g filter="url(#fC)">
    <ellipse cx="180" cy="178" rx="128" ry="43" fill="#FF9A59"/>
    <circle cx="64"  cy="152" r="34" fill="#FF9A59"/>
    <circle cx="122" cy="118" r="50" fill="#FF9A59"/>
    <circle cx="173" cy="87"  r="56" fill="#FF9A59"/>
    <circle cx="230" cy="111" r="53" fill="#FFA76C"/>
    <circle cx="293" cy="148" r="37" fill="#FFA76C"/>
  </g>
  <g filter="url(#fG)">
    <ellipse cx="165" cy="96" rx="44" ry="23" fill="#FFCF90" opacity="0.48"/>
  </g>
  <g class="hand-l" filter="url(#fH)"><circle cx="105" cy="188" r="18" fill="#FFB87A"/></g>
  <g class="hand-r" filter="url(#fH)"><circle cx="255" cy="186" r="18" fill="#FFB87A"/></g>  <g class="z1"><text x="292" y="106" font-size="16" font-weight="bold" fill="#FFA76C" font-family="Arial">Z</text></g>
  <g class="z2"><text x="308" y="82"  font-size="22" font-weight="bold" fill="#FFA76C" font-family="Arial">Z</text></g>
  <g class="z3"><text x="328" y="54"  font-size="28" font-weight="bold" fill="#FFA76C" font-family="Arial">Z</text></g>  <ellipse cx="136" cy="161" rx="24" ry="11" fill="#FF6080" opacity="0.35" filter="url(#fB)"/>
  <ellipse cx="224" cy="161" rx="24" ry="11" fill="#FF6080" opacity="0.35" filter="url(#fB)"/>  <g filter="url(#fF)">
    <line x1="141" y1="136" x2="159" y2="154" stroke="#1E0A00" stroke-width="3.5" stroke-linecap="round"/>
    <line x1="159" y1="136" x2="141" y2="154" stroke="#1E0A00" stroke-width="3.5" stroke-linecap="round"/>
    <line x1="201" y1="136" x2="219" y2="154" stroke="#1E0A00" stroke-width="3.5" stroke-linecap="round"/>
    <line x1="219" y1="136" x2="201" y2="154" stroke="#1E0A00" stroke-width="3.5" stroke-linecap="round"/>
  </g>  <g filter="url(#fF)">
    <line x1="170" y1="171" x2="190" y2="171" stroke="#1E0A00" stroke-width="2.4" stroke-linecap="round"/>
  </g>
  </g>
</svg>