<svg width="360" height="240" viewBox="0 0 360 240"
  xmlns="http://www.w3.org/2000/svg" aria-label="Dozing">
  <defs>
    <filter id="fC" x="-15%" y="-15%" width="130%" height="130%">
      <feGaussianBlur stdDeviation="3"/>
    </filter>
    <filter id="fG" x="-60%" y="-60%" width="220%" height="220%">
      <feGaussianBlur stdDeviation="5"/>
    </filter>
    <filter id="fB" x="-100%" y="-100%" width="300%" height="300%">
      <feGaussianBlur stdDeviation="7"/>
    </filter>
    <filter id="fF" x="-20%" y="-20%" width="140%" height="140%">
      <feGaussianBlur stdDeviation="0.3"/>
    </filter>
    <filter id="fH" x="-30%" y="-30%" width="160%" height="160%">
      <feGaussianBlur stdDeviation="1.5"/>
    </filter>
  </defs>
  <style>
  .zf{animation:zfloat 2.2s ease-in-out infinite}
  @keyframes zfloat{0%{transform:translate(0,0) scale(.7);opacity:0}25%{opacity:1}100%{transform:translate(16px,-32px) scale(1.1);opacity:0}}</style>
  <g class="cloud" transform="rotate(8 180 155)">
  <g filter="url(#fC)">
    <ellipse cx="180" cy="178" rx="128" ry="43" fill="#FF9A59"/>
    <circle cx="64"  cy="152" r="34" fill="#FF9A59"/>
    <circle cx="122" cy="118" r="50" fill="#FF9A59"/>
    <circle cx="173" cy="87"  r="56" fill="#FF9A59"/>
    <circle cx="230" cy="111" r="53" fill="#FFA76C"/>
    <circle cx="293" cy="148" r="37" fill="#FFA76C"/>
  </g>
  <g filter="url(#fG)">
    <ellipse cx="165" cy="96" rx="44" ry="23" fill="#FFCF90" opacity="0.48"/>
  </g>
  <g class="hand-l" filter="url(#fH)"><circle cx="105" cy="188" r="18" fill="#FFB87A"/></g>
  <g class="hand-r" filter="url(#fH)"><circle cx="255" cy="186" r="18" fill="#FFB87A"/></g>  <g class="zf"><text x="298" y="102" font-size="22" font-weight="bold" fill="#FFA76C" font-family="Arial" opacity="0.85">z</text></g>  <ellipse cx="136" cy="161" rx="24" ry="11" fill="#FF6080" opacity="0.35" filter="url(#fB)"/>
  <ellipse cx="224" cy="161" rx="24" ry="11" fill="#FF6080" opacity="0.35" filter="url(#fB)"/>  <g filter="url(#fF)">
    <ellipse cx="150" cy="151" rx="14" ry="7" fill="#1E0A00"/>
    <ellipse cx="147" cy="148" rx="3.5" ry="3" fill="#FFF" opacity="0.82"/>
    <ellipse cx="210" cy="151" rx="14" ry="7" fill="#1E0A00"/>
    <ellipse cx="207" cy="148" rx="3.5" ry="3" fill="#FFF" opacity="0.82"/>
  </g>  <g filter="url(#fF)">
    <line x1="170" y1="171" x2="190" y2="171" stroke="#1E0A00" stroke-width="2.4" stroke-linecap="round"/>
  </g>
  </g>
</svg>