<svg width="360" height="240" viewBox="0 0 360 240"
  xmlns="http://www.w3.org/2000/svg" aria-label="Idle Follow"
  style="background: transparent">
  <defs>
    <filter id="fC" x="-15%" y="-15%" width="130%" height="130%">
      <feGaussianBlur stdDeviation="3"/>
    </filter>
    <filter id="fG" x="-60%" y="-60%" width="220%" height="220%">
      <feGaussianBlur stdDeviation="5"/>
    </filter>
    <filter id="fB" x="-100%" y="-100%" width="300%" height="300%">
      <feGaussianBlur stdDeviation="7"/>
    </filter>
    <filter id="fF" x="-20%" y="-20%" width="140%" height="140%">
      <feGaussianBlur stdDeviation="0.3"/>
    </filter>
    <filter id="fH" x="-30%" y="-30%" width="160%" height="160%">
      <feGaussianBlur stdDeviation="1.5"/>
    </filter>
  </defs>
  <style>
  .cloud{animation:float 3.8s ease-in-out infinite}
  @keyframes float{0%,100%{transform:translateY(0)}50%{transform:translateY(-12px)}}
  .hand-l{transform-box:fill-box;transform-origin:center top;animation:wvL 3.2s ease-in-out infinite}
  .hand-r{transform-box:fill-box;transform-origin:center top;animation:wvR 3.2s ease-in-out infinite}
  @keyframes wvL{0%,100%{transform:rotate(0)}40%{transform:rotate(-7deg) translateY(-2px)}70%{transform:rotate(3deg) translateY(1px)}}
  @keyframes wvR{0%,100%{transform:rotate(0)}35%{transform:rotate(7deg) translateY(-2px)}65%{transform:rotate(-3deg) translateY(1px)}}</style>
  <g class="cloud">
  <g filter="url(#fC)">
    <ellipse cx="180" cy="178" rx="128" ry="43" fill="#FF9A59"/>
    <circle cx="64"  cy="152" r="34" fill="#FF9A59"/>
    <circle cx="122" cy="118" r="50" fill="#FF9A59"/>
    <circle cx="173" cy="87"  r="56" fill="#FF9A59"/>
    <circle cx="230" cy="111" r="53" fill="#FFA76C"/>
    <circle cx="293" cy="148" r="37" fill="#FFA76C"/>
  </g>
  <g filter="url(#fG)">
    <ellipse cx="165" cy="96" rx="44" ry="23" fill="#FFCF90" opacity="0.48"/>
  </g>
  <g class="hand-l" filter="url(#fH)"><circle cx="105" cy="188" r="18" fill="#FFB87A"/></g>
  <g class="hand-r" filter="url(#fH)"><circle cx="255" cy="186" r="18" fill="#FFB87A"/></g>  <ellipse cx="136" cy="161" rx="24" ry="11" fill="#FF6080" opacity="0.35" filter="url(#fB)"/>
  <ellipse cx="224" cy="161" rx="24" ry="11" fill="#FF6080" opacity="0.35" filter="url(#fB)"/>  <g filter="url(#fF)">
    <g id="l-eye">
      <ellipse id="l-iris" cx="150" cy="145" rx="14" ry="16" fill="#1E0A00"/>
      <ellipse id="l-hl"   cx="145" cy="139" rx="4.5" ry="5.5" fill="#FFF" opacity="0.92"/>
    </g>
  </g>
  <g filter="url(#fF)">
    <g id="r-eye">
      <ellipse id="r-iris" cx="210" cy="145" rx="14" ry="16" fill="#1E0A00"/>
      <ellipse id="r-hl"   cx="205" cy="139" rx="4.5" ry="5.5" fill="#FFF" opacity="0.92"/>
    </g>
  </g>  <g filter="url(#fF)">
    <path d="M 168 168 Q 180 178 192 168" stroke="#1E0A00" stroke-width="2.4" fill="none" stroke-linecap="round"/>
  </g>
  </g>
</svg>