<svg xmlns="http://www.w3.org/2000/svg" viewBox="0 0 120 120" width="120" height="120" shape-rendering="crispEdges">
  <g id="root">
    <!-- Body -->
    <rect x="28" y="44" width="64" height="28" fill="#CC7850"/>
    <!-- Left arm bump -->
    <rect x="20" y="52" width="8" height="14" fill="#CC7850"/>
    <!-- Right arm bump -->
    <rect x="92" y="52" width="8" height="14" fill="#CC7850"/>
    <!-- Left eye -->
    <rect x="38" y="52" width="12" height="12" fill="#1A0A00"/>
    <!-- Right eye -->
    <rect x="70" y="52" width="12" height="12" fill="#1A0A00"/>
    <!-- Legs -->
    <rect x="36" y="72" width="10" height="12" fill="#CC7850"/>
    <rect x="50" y="72" width="10" height="12" fill="#CC7850"/>
    <rect x="60" y="72" width="10" height="12" fill="#CC7850"/>
    <rect x="74" y="72" width="10" height="12" fill="#CC7850"/>
    <!-- Speech bubble border (dark bg) -->
    <rect x="64" y="10" width="40" height="26" fill="#333333"/>
    <!-- Speech bubble white fill -->
    <rect x="66" y="12" width="36" height="22" fill="#FFFFFF"/>
    <!-- Bubble tail -->
    <rect x="70" y="34" width="6" height="6" fill="#FFFFFF"/>
    <rect x="68" y="40" width="4" height="4" fill="#FFFFFF"/>
    <!-- Three dots inside bubble -->
    <rect x="72" y="20" width="4" height="4" fill="#555555"/>
    <rect x="82" y="20" width="4" height="4" fill="#555555"/>
    <rect x="92" y="20" width="4" height="4" fill="#555555"/>
  </g>
</svg>
